<svg width="171" height="94" viewBox="0 0 171 94" fill="none" xmlns="http://www.w3.org/2000/svg">
<path d="M24.5879 71.1058L46.5189 93.0378L68.4509 71.1058L46.5189 49.1738L24.5879 71.1058Z" fill="url(#paint0_linear)"/>
<path d="M71.1068 24.5898L49.1758 46.5218L71.1068 68.4538L93.0388 46.5218L71.1068 24.5898Z" fill="url(#paint1_linear)"/>
<path d="M0 46.5199L21.9331 68.4519L43.8651 46.5199L21.9331 24.5879L0 46.5199Z" fill="url(#paint2_linear)"/>
<path d="M24.5879 21.932L46.5189 43.864L68.4509 21.932L46.5189 0L24.5879 21.932Z" fill="url(#paint3_linear)"/>
<path d="M15.8381 47.9494L19.3281 49.0044C19.1358 49.891 18.7581 50.727 18.22 51.4574C17.7295 52.1029 17.0839 52.6141 16.3431 52.9434C15.4371 53.3064 14.4655 53.4767 13.4901 53.4434C12.3153 53.4856 11.1451 53.2773 10.0571 52.8324C9.09553 52.3586 8.29533 51.6114 7.75703 50.6844C7.06866 49.4904 6.73342 48.1255 6.79011 46.7484C6.73088 45.857 6.8508 44.9627 7.14277 44.1184C7.43475 43.2741 7.89281 42.4968 8.49006 41.8324C9.13388 41.2343 9.89278 40.7736 10.7204 40.4782C11.548 40.1829 12.427 40.0591 13.304 40.1144C14.6514 40.0397 15.9891 40.3837 17.1331 41.0994C18.1331 41.8562 18.8599 42.9175 19.2041 44.1234L15.6871 44.9054C15.6042 44.5995 15.4737 44.3086 15.3001 44.0434C15.0867 43.7486 14.8063 43.5087 14.4821 43.3434C14.1466 43.1764 13.7759 43.092 13.4011 43.0974C12.99 43.0804 12.5817 43.1721 12.2174 43.3633C11.853 43.5545 11.5457 43.8384 11.3261 44.1864C10.9058 44.963 10.7166 45.8437 10.7811 46.7244C10.6792 47.7478 10.9073 48.7769 11.4321 49.6614C11.6544 49.9267 11.9353 50.1367 12.2528 50.2747C12.5702 50.4126 12.9154 50.4748 13.2611 50.4564C13.5781 50.4793 13.8965 50.4339 14.1944 50.3231C14.4924 50.2124 14.763 50.0389 14.9881 49.8144C15.4301 49.278 15.7232 48.6349 15.8381 47.9494Z" fill="black"/>
<path d="M20.5804 46.7887C20.5264 45.8932 20.6543 44.996 20.9564 44.1513C21.2585 43.3065 21.7286 42.5318 22.3384 41.8737C22.9939 41.2647 23.7661 40.7949 24.6083 40.4927C25.4505 40.1906 26.3452 40.0623 27.2384 40.1157C28.1384 40.0573 29.0409 40.1802 29.8926 40.477C30.7442 40.7739 31.5276 41.2386 32.1964 41.8437C32.7997 42.4901 33.2652 43.2526 33.5643 44.0847C33.8635 44.9168 33.99 45.8011 33.9364 46.6837C33.9856 47.9622 33.7249 49.2337 33.1764 50.3897C32.6818 51.3411 31.9162 52.1244 30.9764 52.6407C29.8704 53.2101 28.6366 53.4856 27.3934 53.4407C26.1535 53.4839 24.9198 53.2467 23.7844 52.7467C22.8094 52.2621 22.0024 51.4956 21.4684 50.5467C20.8404 49.3964 20.5337 48.0983 20.5804 46.7887ZM24.5635 46.8057C24.4764 47.7947 24.7328 48.7835 25.2894 49.6057C25.5321 49.8883 25.8361 50.112 26.1781 50.2598C26.5201 50.4076 26.8912 50.4756 27.2634 50.4587C27.6363 50.4798 28.009 50.4156 28.3534 50.2709C28.6977 50.1262 29.0045 49.9048 29.2503 49.6237C29.8091 48.7286 30.0553 47.6736 29.9504 46.6237C30.0303 45.6782 29.77 44.7353 29.2164 43.9647C28.9681 43.6852 28.6604 43.4648 28.3159 43.3194C27.9714 43.1741 27.5989 43.1076 27.2254 43.1247C26.8595 43.1112 26.4953 43.181 26.1603 43.3288C25.8252 43.4765 25.5282 43.6984 25.2914 43.9777C24.7288 44.8081 24.472 45.808 24.5644 46.8067L24.5635 46.8057Z" fill="black"/>
<path d="M35.4007 46.7887C35.3467 45.8932 35.4747 44.996 35.7768 44.1513C36.0789 43.3066 36.5491 42.5318 37.1588 41.8737C37.8143 41.2647 38.5865 40.795 39.4287 40.4928C40.2709 40.1907 41.1655 40.0624 42.0587 40.1157C42.9587 40.0573 43.8613 40.1802 44.713 40.477C45.5646 40.7738 46.3479 41.2386 47.0167 41.8437C47.6202 42.49 48.0859 43.2525 48.3852 44.0846C48.6845 44.9167 48.8113 45.801 48.7578 46.6837C48.8068 47.9622 48.5461 49.2337 47.9978 50.3897C47.5032 51.3411 46.7375 52.1245 45.7977 52.6407C44.6917 53.2101 43.4578 53.4856 42.2147 53.4407C40.9748 53.484 39.7411 53.2467 38.6057 52.7467C37.6303 52.2621 36.8232 51.4957 36.2888 50.5467C35.6608 49.3965 35.354 48.0984 35.4007 46.7887ZM39.3847 46.8057C39.2975 47.7946 39.5535 48.7834 40.1097 49.6057C40.3524 49.8883 40.6564 50.112 40.9984 50.2598C41.3404 50.4076 41.7115 50.4756 42.0837 50.4587C42.4566 50.4799 42.8294 50.4157 43.1738 50.271C43.5181 50.1263 43.8249 49.9049 44.0708 49.6237C44.6295 48.7287 44.8757 47.6736 44.7707 46.6237C44.8506 45.6782 44.5903 44.7353 44.0367 43.9647C43.7883 43.6852 43.4808 43.4648 43.1363 43.3195C42.7918 43.1741 42.4192 43.1076 42.0457 43.1247C41.6798 43.1113 41.3157 43.1811 40.9807 43.3289C40.6457 43.4767 40.3486 43.6985 40.1118 43.9777C39.5494 44.8082 39.2924 45.808 39.3847 46.8067V46.8057Z" fill="black"/>
<path d="M50.7031 40.3357H57.3231C58.4957 40.2451 59.6576 40.6141 60.5631 41.3647C60.9366 41.7509 61.2254 42.2108 61.4109 42.715C61.5964 43.2192 61.6744 43.7566 61.6401 44.2927C61.672 44.8555 61.5838 45.4185 61.3813 45.9446C61.1789 46.4706 60.867 46.9475 60.4662 47.3437C59.4555 48.1532 58.174 48.5467 56.8832 48.4437H54.7031V53.2268H50.7031V40.3357ZM54.7031 45.8307H55.6792C56.2483 45.8856 56.8191 45.7445 57.2971 45.4307C57.4471 45.3064 57.5671 45.1496 57.6478 44.9723C57.7285 44.7949 57.768 44.6016 57.7632 44.4068C57.7679 44.2173 57.7349 44.0288 57.6663 43.8522C57.5976 43.6755 57.4946 43.5142 57.3632 43.3777C56.9303 43.0446 56.3847 42.8933 55.8422 42.9557H54.7081L54.7031 45.8307Z" fill="black"/>
<path d="M69.9368 51.0989H65.4147L64.7867 53.2269H60.7207L65.5647 40.3379H69.9087L74.7517 53.2269H70.5807L69.9368 51.0989ZM69.1107 48.3119L67.6877 43.6789L66.2808 48.3119H69.1107Z" fill="black"/>
<path d="M75.8906 53.2254V40.3364H82.5286C83.4797 40.3019 84.4307 40.4084 85.3506 40.6524C85.9917 40.8563 86.5457 41.2698 86.9236 41.8264C87.3364 42.4429 87.5461 43.1729 87.5236 43.9144C87.5406 44.5614 87.3824 45.201 87.0656 45.7654C86.7594 46.2854 86.3267 46.7196 85.8076 47.0274C85.3702 47.2689 84.8979 47.441 84.4076 47.5374C84.7743 47.645 85.1236 47.805 85.4446 48.0124C85.6825 48.2129 85.8963 48.4405 86.0817 48.6904C86.2932 48.9384 86.48 49.2063 86.6396 49.4904L88.5686 53.2254H84.0686L81.9396 49.2864C81.7701 48.9094 81.5247 48.5713 81.2186 48.2934C80.9325 48.0941 80.5912 47.9893 80.2426 47.9934H79.8906V53.2244H75.8906V53.2254ZM79.8906 45.5594H81.5696C81.9258 45.5323 82.2789 45.4734 82.6246 45.3834C82.8822 45.3351 83.1126 45.1925 83.2706 44.9834C83.4362 44.7699 83.5244 44.5065 83.5206 44.2364C83.5311 44.0568 83.5005 43.8772 83.4312 43.7112C83.3618 43.5452 83.2557 43.3972 83.1206 43.2784C82.6749 43.0082 82.1531 42.8909 81.6346 42.9444H79.8846V45.5644L79.8906 45.5594Z" fill="black"/>
<path d="M97.9202 47.9494L101.41 49.0044C101.218 49.8911 100.84 50.727 100.302 51.4574C99.8117 52.103 99.1661 52.6142 98.4252 52.9434C97.5192 53.3065 96.5475 53.4767 95.5721 53.4434C94.3974 53.4856 93.2272 53.2774 92.1391 52.8324C91.1776 52.3587 90.3775 51.6114 89.8392 50.6844C89.1507 49.4904 88.8154 48.1255 88.8721 46.7484C88.8129 45.857 88.9329 44.9628 89.2248 44.1185C89.5168 43.2742 89.9749 42.4969 90.5721 41.8324C91.2159 41.2343 91.9747 40.7735 92.8024 40.4781C93.63 40.1828 94.5091 40.059 95.3862 40.1144C96.7336 40.0397 98.0711 40.3837 99.2151 41.0994C100.215 41.8565 100.941 42.9178 101.285 44.1234L97.7681 44.9054C97.6852 44.5996 97.5546 44.3087 97.3812 44.0434C97.1679 43.7485 96.8875 43.5085 96.5632 43.3434C96.2273 43.1763 95.8563 43.092 95.4811 43.0974C95.07 43.0804 94.6617 43.1721 94.2974 43.3633C93.9331 43.5545 93.6256 43.8384 93.4061 44.1864C92.9858 44.963 92.7967 45.8437 92.8611 46.7244C92.759 47.7477 92.9868 48.7768 93.5112 49.6614C93.7335 49.9268 94.0144 50.1367 94.3318 50.2747C94.6493 50.4127 94.9945 50.4749 95.3401 50.4564C95.6573 50.4794 95.9758 50.434 96.2739 50.3233C96.572 50.2125 96.8429 50.039 97.0682 49.8144C97.5105 49.278 97.8042 48.6349 97.9202 47.9494Z" fill="black"/>
<path d="M103.155 40.3359H113.828V43.088H107.146V45.1369H113.346V47.7659H107.146V50.3069H114.021V53.226H103.154V40.3359H103.155Z" fill="black"/>
<path d="M116.014 40.3359H119.733L124.586 47.4669V40.3359H128.34V53.2249H124.586L119.759 46.1479V53.2249H116.014V40.3359Z" fill="black"/>
<path d="M129.899 40.3359H142.005V43.519H137.943V53.2249H133.96V43.519H129.898L129.899 40.3359Z" fill="black"/>
<path d="M143.682 53.2254V40.3364H150.32C151.271 40.3019 152.222 40.4084 153.142 40.6524C153.783 40.8561 154.338 41.2696 154.716 41.8264C155.128 42.4429 155.338 43.1729 155.316 43.9144C155.333 44.5613 155.175 45.201 154.859 45.7654C154.553 46.2855 154.12 46.7196 153.601 47.0274C153.163 47.269 152.691 47.4411 152.201 47.5374C152.567 47.6451 152.917 47.805 153.238 48.0124C153.476 48.2129 153.689 48.4405 153.875 48.6904C154.086 48.9385 154.273 49.2064 154.433 49.4904L156.361 53.2254H151.861L149.732 49.2864C149.562 48.9094 149.317 48.5713 149.011 48.2934C148.725 48.0942 148.383 47.9893 148.035 47.9934H147.683V53.2244H143.683L143.682 53.2254ZM147.682 45.5594H149.36C149.716 45.5323 150.069 45.4734 150.415 45.3834C150.672 45.3352 150.903 45.1926 151.061 44.9834C151.226 44.77 151.314 44.5066 151.311 44.2364C151.321 44.0568 151.291 43.8772 151.221 43.7112C151.152 43.5452 151.046 43.3972 150.911 43.2784C150.465 43.0083 149.943 42.891 149.425 42.9444H147.676L147.682 45.5594Z" fill="black"/>
<path d="M156.645 46.7903C156.591 45.8948 156.719 44.9976 157.021 44.1529C157.323 43.3082 157.793 42.5334 158.403 41.8753C159.058 41.2663 159.831 40.7965 160.673 40.4943C161.515 40.1922 162.41 40.0639 163.303 40.1173C164.202 40.0597 165.103 40.183 165.954 40.4798C166.804 40.7766 167.587 41.2409 168.255 41.8453C168.858 42.4917 169.324 43.2541 169.623 44.0862C169.923 44.9183 170.049 45.8026 169.996 46.6853C170.045 47.9639 169.784 49.2354 169.235 50.3913C168.74 51.3427 167.975 52.1261 167.035 52.6423C165.929 53.2116 164.696 53.4871 163.453 53.4423C162.213 53.4855 160.979 53.2483 159.844 52.7483C158.868 52.2638 158.061 51.4973 157.527 50.5483C156.901 49.3975 156.596 48.0994 156.645 46.7903ZM160.628 46.8073C160.541 47.7962 160.797 48.7849 161.353 49.6073C161.596 49.8899 161.9 50.1136 162.242 50.2613C162.584 50.4091 162.955 50.4771 163.327 50.4603C163.7 50.4815 164.073 50.4173 164.417 50.2726C164.761 50.1279 165.068 49.9065 165.314 49.6253C165.873 48.7303 166.119 47.6752 166.014 46.6253C166.094 45.6798 165.833 44.7369 165.28 43.9663C165.031 43.6869 164.724 43.4665 164.379 43.3212C164.035 43.1758 163.662 43.1093 163.289 43.1263C162.923 43.1129 162.559 43.1827 162.224 43.3305C161.889 43.4782 161.592 43.7001 161.355 43.9793C160.793 44.8098 160.536 45.8096 160.628 46.8083V46.8073Z" fill="black"/>
<defs>
<linearGradient id="paint0_linear" x1="46.5194" y1="93.0378" x2="46.5194" y2="49.1738" gradientUnits="userSpaceOnUse">
<stop stop-color="#009D57"/>
<stop offset="1" stop-color="white"/>
</linearGradient>
<linearGradient id="paint1_linear" x1="49.1758" y1="46.5218" x2="93.0388" y2="46.5218" gradientUnits="userSpaceOnUse">
<stop stop-color="white"/>
<stop offset="1" stop-color="#009D57"/>
</linearGradient>
<linearGradient id="paint2_linear" x1="0" y1="46.5199" x2="43.8651" y2="46.5199" gradientUnits="userSpaceOnUse">
<stop stop-color="#009D57"/>
<stop offset="1" stop-color="white"/>
</linearGradient>
<linearGradient id="paint3_linear" x1="46.5194" y1="43.864" x2="46.5194" y2="0" gradientUnits="userSpaceOnUse">
<stop stop-color="white"/>
<stop offset="1" stop-color="#009D57"/>
</linearGradient>
</defs>
</svg>
