<svg width="171" height="95" viewBox="0 0 171 95" fill="none" xmlns="http://www.w3.org/2000/svg">
<path d="M24.5879 72.0902L46.5199 94.0222L68.4519 72.0902L46.5199 50.1582L24.5879 72.0902Z" fill="url(#paint0_linear)"/>
<path d="M71.1078 25.5723L49.1758 47.5042L71.1078 69.4362L93.0448 47.5013L71.1078 25.5723Z" fill="url(#paint1_linear)"/>
<path d="M0 47.5013L21.932 69.4333L43.864 47.5013L21.932 25.5723L0 47.5013Z" fill="url(#paint2_linear)"/>
<path d="M24.5879 22.9144L46.5199 44.8464L68.4519 22.9144L46.5199 0.982422L24.5879 22.9144Z" fill="url(#paint3_linear)"/>
<path d="M15.8381 48.9326L19.3281 49.9876C19.1357 50.8742 18.7582 51.7101 18.2201 52.4406C17.7296 53.0862 17.084 53.5973 16.3431 53.9266C15.4372 54.2896 14.4655 54.4599 13.4901 54.4266C12.3154 54.4687 11.1451 54.2605 10.0571 53.8156C9.0956 53.3418 8.29544 52.5945 7.75709 51.6676C7.06868 50.4736 6.73337 49.1086 6.79011 47.7316C6.73088 46.8401 6.85077 45.9459 7.14274 45.1016C7.43472 44.2573 7.89285 43.48 8.4901 42.8156C9.69282 41.8447 11.1587 41.256 12.6988 41.1254C14.239 40.9947 15.783 41.3281 17.1321 42.0826C18.1316 42.8396 18.858 43.9009 19.2021 45.1066L15.6851 45.8886C15.6021 45.5827 15.4715 45.2918 15.2981 45.0266C15.0847 44.7318 14.8043 44.4919 14.4801 44.3266C13.9399 44.0681 13.3251 44.0111 12.7465 44.1656C12.168 44.3202 11.6635 44.6762 11.3241 45.1696C10.9038 45.9462 10.7146 46.8269 10.7791 47.7076C10.6771 48.7313 10.9052 49.7608 11.4301 50.6456C11.8882 51.1255 12.5144 51.4096 13.1773 51.4381C13.8402 51.4666 14.4884 51.2374 14.9861 50.7986C15.4287 50.262 15.7225 49.6185 15.8381 48.9326Z" fill="white"/>
<path d="M20.5805 47.7714C20.4917 46.8747 20.6026 45.9694 20.9054 45.1207C21.2082 44.272 21.6953 43.5009 22.3316 42.8628C22.9679 42.2248 23.7377 41.7356 24.5856 41.4305C25.4335 41.1254 26.3385 41.012 27.2355 41.0984C28.1355 41.04 29.038 41.1629 29.8897 41.4597C30.7413 41.7565 31.5247 42.2213 32.1934 42.8264C32.797 43.4727 33.2626 44.2352 33.5619 45.0673C33.8612 45.8994 33.988 46.7837 33.9344 47.6664C33.9836 48.9449 33.7229 50.2164 33.1745 51.3724C32.6798 52.3238 31.9142 53.1071 30.9745 53.6234C29.8685 54.1929 28.6346 54.4684 27.3914 54.4234C26.1515 54.4664 24.9178 54.2288 23.7825 53.7284C22.8071 53.2439 21.9998 52.4774 21.4655 51.5284C20.8387 50.3781 20.5331 49.0805 20.5805 47.7714ZM24.5634 47.7894C24.4763 48.7783 24.7323 49.7671 25.2884 50.5894C25.5435 50.8574 25.8501 51.0711 26.1897 51.2176C26.5294 51.3642 26.8952 51.4406 27.2651 51.4423C27.6351 51.444 28.0015 51.3709 28.3425 51.2274C28.6835 51.0839 28.992 50.8731 29.2494 50.6074C29.8082 49.7123 30.0543 48.6573 29.9495 47.6074C30.0293 46.6619 29.769 45.719 29.2155 44.9484C28.9671 44.6689 28.6594 44.4485 28.315 44.3032C27.9705 44.1578 27.5979 44.0913 27.2245 44.1084C26.8586 44.095 26.4944 44.1648 26.1594 44.3126C25.8244 44.4603 25.5273 44.6822 25.2905 44.9614C24.7284 45.7916 24.4715 46.791 24.5634 47.7894Z" fill="white"/>
<path d="M35.4008 47.7714C35.312 46.8747 35.423 45.9694 35.7258 45.1207C36.0286 44.272 36.5156 43.5009 37.1519 42.8628C37.7883 42.2248 38.5581 41.7356 39.406 41.4305C40.2539 41.1254 41.1588 41.012 42.0558 41.0984C42.9558 41.0399 43.8584 41.1628 44.71 41.4596C45.5617 41.7564 46.3451 42.2212 47.0138 42.8264C47.6173 43.4727 48.0829 44.2352 48.3822 45.0673C48.6815 45.8994 48.8083 46.7837 48.7548 47.6664C48.8039 48.9449 48.5432 50.2164 47.9948 51.3724C47.5002 52.3238 46.7346 53.1072 45.7948 53.6234C44.6889 54.1929 43.455 54.4684 42.2118 54.4234C40.9718 54.4664 39.7381 54.2288 38.6028 53.7284C37.6275 53.2438 36.8202 52.4773 36.2858 51.5284C35.6591 50.3781 35.3534 49.0805 35.4008 47.7714ZM39.3838 47.7894C39.2967 48.7783 39.5526 49.7671 40.1088 50.5894C40.3638 50.8574 40.6704 51.0711 41.0101 51.2176C41.3498 51.3642 41.7155 51.4406 42.0855 51.4423C42.4554 51.444 42.8219 51.3709 43.1629 51.2274C43.5039 51.0839 43.8123 50.8731 44.0698 50.6074C44.6285 49.7123 44.8747 48.6573 44.7698 47.6074C44.8497 46.6619 44.5894 45.719 44.0358 44.9484C43.7874 44.6689 43.4798 44.4485 43.1353 44.3032C42.7909 44.1578 42.4183 44.0913 42.0448 44.1084C41.6789 44.095 41.3147 44.1647 40.9797 44.3125C40.6447 44.4602 40.3476 44.6821 40.1108 44.9614C39.5501 45.7922 39.2946 46.7915 39.3878 47.7894H39.3838Z" fill="white"/>
<path d="M50.7012 41.3181H57.3212C58.4938 41.2276 59.6557 41.5966 60.5612 42.3471C60.9347 42.7333 61.2234 43.1932 61.4089 43.6974C61.5943 44.2016 61.6724 44.739 61.6382 45.2751C61.67 45.8378 61.5817 46.4009 61.3793 46.9269C61.1769 47.4529 60.865 47.9299 60.4642 48.3261C59.4535 49.1356 58.172 49.5291 56.8812 49.4261H54.7012V54.2092H50.7012V41.3181ZM54.7012 46.8131H55.6772C56.2463 46.8679 56.8171 46.7268 57.2952 46.4131C57.4452 46.2888 57.5651 46.132 57.6458 45.9547C57.7265 45.7773 57.7659 45.584 57.7612 45.3891C57.7659 45.1997 57.733 45.0112 57.6644 44.8345C57.5957 44.6579 57.4927 44.4966 57.3612 44.3601C56.9284 44.027 56.3828 43.8756 55.8402 43.9381H54.7062V46.8131H54.7012Z" fill="white"/>
<path d="M69.9367 52.0813H65.4156L64.7877 54.2093H60.7207L65.5647 41.3203H69.9087L74.7516 54.2093H70.5817L69.9367 52.0813ZM69.1107 49.2943L67.6887 44.6613L66.2807 49.2943H69.1107Z" fill="white"/>
<path d="M75.8906 54.2077V41.3187H82.5286C83.4798 41.2845 84.4308 41.3914 85.3506 41.6357C85.9922 41.8394 86.5465 42.2529 86.9246 42.8097C87.2095 43.2191 87.4071 43.6827 87.5053 44.1717C87.6035 44.6607 87.6001 45.1646 87.4954 45.6523C87.3906 46.1399 87.1868 46.6008 86.8964 47.0063C86.6061 47.4119 86.2355 47.7534 85.8076 48.0097C85.3702 48.2513 84.8979 48.4233 84.4077 48.5197C84.7744 48.6273 85.1236 48.7873 85.4446 48.9947C85.6825 49.1953 85.8963 49.4228 86.0817 49.6727C86.2931 49.9207 86.48 50.1886 86.6396 50.4727L88.5687 54.2077H84.0687L81.9396 50.2687C81.7701 49.8917 81.5247 49.5536 81.2186 49.2757C80.9325 49.0764 80.5913 48.9715 80.2426 48.9757H79.8906V54.2067H75.8906V54.2077ZM79.8906 46.5417H81.5667C81.9229 46.5146 82.2759 46.4557 82.6216 46.3657C82.8792 46.3173 83.1095 46.1747 83.2676 45.9657C83.453 45.7116 83.5403 45.3991 83.5137 45.0857C83.487 44.7722 83.3482 44.479 83.1226 44.2597C82.6769 43.9896 82.1551 43.8723 81.6367 43.9257H79.8867L79.8906 46.5417Z" fill="white"/>
<path d="M97.9181 48.9326L101.408 49.9876C101.216 50.8742 100.838 51.7102 100.3 52.4406C99.8098 53.0862 99.1641 53.5974 98.4231 53.9266C97.5172 54.2896 96.5455 54.4599 95.5701 54.4266C94.3954 54.4687 93.2252 54.2605 92.1371 53.8156C91.1757 53.3417 90.3755 52.5945 89.8371 51.6676C89.1488 50.4735 88.8135 49.1086 88.8702 47.7316C88.811 46.8402 88.9309 45.9459 89.2229 45.1016C89.5149 44.2573 89.9729 43.48 90.5701 42.8156C91.7728 41.8447 93.2387 41.256 94.7789 41.1254C96.319 40.9947 97.8631 41.3281 99.2121 42.0826C100.212 42.8397 100.938 43.9009 101.282 45.1066L97.7651 45.8886C97.6822 45.5827 97.5516 45.2918 97.3782 45.0266C97.1649 44.7316 96.8845 44.4917 96.5602 44.3266C96.0199 44.0681 95.4052 44.0111 94.8266 44.1656C94.248 44.3202 93.7436 44.6762 93.4042 45.1696C92.9839 45.9462 92.7947 46.8269 92.8591 47.7076C92.7568 48.7312 92.9846 49.7607 93.5091 50.6456C93.9673 51.1255 94.5934 51.4096 95.2563 51.4381C95.9192 51.4666 96.5674 51.2374 97.0651 50.7986C97.5079 50.262 97.802 49.6185 97.9181 48.9326Z" fill="white"/>
<path d="M103.155 41.3184H113.828V44.0704H107.146V46.1194H113.346V48.7484H107.146V51.2894H114.021V54.2084H103.154L103.155 41.3184Z" fill="white"/>
<path d="M116.014 41.3184H119.733L124.586 48.4494V41.3184H128.34V54.2074H124.586L119.759 47.1304V54.2074H116.014V41.3184Z" fill="white"/>
<path d="M129.899 41.3184H142.005V44.5014H137.943V54.2074H133.96V44.5014H129.898L129.899 41.3184Z" fill="white"/>
<path d="M143.682 54.2077V41.3187H150.32C151.271 41.2845 152.222 41.3914 153.142 41.6357C153.783 41.8394 154.338 42.2529 154.716 42.8097C155.001 43.2191 155.198 43.6827 155.296 44.1717C155.395 44.6607 155.391 45.1647 155.286 45.6523C155.182 46.1399 154.978 46.6008 154.688 47.0063C154.397 47.4119 154.027 47.7534 153.599 48.0097C153.161 48.2514 152.689 48.4234 152.199 48.5197C152.565 48.6274 152.915 48.7874 153.236 48.9947C153.474 49.1953 153.687 49.4228 153.873 49.6727C154.084 49.9208 154.271 50.1887 154.431 50.4727L156.36 54.2077H151.86L149.731 50.2687C149.561 49.8917 149.316 49.5537 149.01 49.2757C148.724 49.0765 148.382 48.9716 148.034 48.9757H147.682V54.2067H143.682V54.2077ZM147.682 46.5417H149.362C149.718 46.5146 150.071 46.4557 150.417 46.3657C150.674 46.3174 150.905 46.1748 151.063 45.9657C151.248 45.7116 151.336 45.3991 151.309 45.0856C151.282 44.7722 151.143 44.4789 150.918 44.2597C150.472 43.9895 149.95 43.8722 149.432 43.9257H147.683L147.682 46.5417Z" fill="white"/>
<path d="M156.645 47.7715C156.556 46.8747 156.667 45.9693 156.97 45.1205C157.273 44.2717 157.76 43.5005 158.396 42.8625C159.033 42.2244 159.803 41.7353 160.651 41.4303C161.499 41.1253 162.404 41.012 163.301 41.0985C164.201 41.04 165.103 41.1629 165.955 41.4597C166.807 41.7565 167.59 42.2213 168.259 42.8265C168.862 43.4729 169.328 44.2353 169.627 45.0674C169.927 45.8995 170.053 46.7838 170 47.6665C170.049 48.945 169.788 50.2165 169.24 51.3725C168.745 52.3239 167.98 53.1072 167.04 53.6235C165.934 54.193 164.7 54.4685 163.457 54.4235C162.217 54.4665 160.983 54.2289 159.848 53.7285C158.873 53.244 158.065 52.4775 157.531 51.5285C156.903 50.3785 156.597 49.0807 156.645 47.7715ZM160.628 47.7895C160.541 48.7784 160.797 49.7671 161.353 50.5895C161.608 50.8576 161.914 51.0714 162.254 51.218C162.594 51.3647 162.96 51.4411 163.33 51.4428C163.7 51.4445 164.066 51.3714 164.407 51.2278C164.748 51.0843 165.056 50.8733 165.314 50.6075C165.873 49.7124 166.119 48.6574 166.014 47.6075C166.094 46.662 165.834 45.7191 165.28 44.9485C165.032 44.669 164.724 44.4486 164.379 44.3033C164.035 44.1579 163.662 44.0914 163.289 44.1085C162.923 44.0951 162.559 44.1649 162.224 44.3127C161.889 44.4604 161.592 44.6823 161.355 44.9615C160.793 45.7917 160.536 46.7911 160.628 47.7895Z" fill="white"/>
<defs>
<linearGradient id="paint0_linear" x1="46.5199" y1="94.0222" x2="46.5199" y2="50.1582" gradientUnits="userSpaceOnUse">
<stop stop-color="#009D57"/>
<stop offset="1" stop-color="#231F20"/>
</linearGradient>
<linearGradient id="paint1_linear" x1="49.1758" y1="47.5043" x2="93.0448" y2="47.5043" gradientUnits="userSpaceOnUse">
<stop stop-color="#231F20"/>
<stop offset="1" stop-color="#009D57"/>
</linearGradient>
<linearGradient id="paint2_linear" x1="0" y1="47.5028" x2="43.864" y2="47.5028" gradientUnits="userSpaceOnUse">
<stop stop-color="#009D57"/>
<stop offset="1" stop-color="#231F20"/>
</linearGradient>
<linearGradient id="paint3_linear" x1="46.5199" y1="44.8464" x2="46.5199" y2="0.982422" gradientUnits="userSpaceOnUse">
<stop stop-color="#231F20"/>
<stop offset="1" stop-color="#009D57"/>
</linearGradient>
</defs>
</svg>
