<svg width="23" height="9" viewBox="0 0 23 9" fill="none" xmlns="http://www.w3.org/2000/svg">
<path d="M4.796 8.29579C5.47999 7.60923 6.26944 7.03654 7.1344 6.59944C7.337 6.49622 7.50898 6.34167 7.63318 6.15121C7.75738 5.96076 7.82946 5.74105 7.84221 5.51403L8.14981 3.28311C10.2023 2.59402 12.4236 2.59377 14.4763 3.28241L14.7803 5.45039C14.7801 5.68823 14.8454 5.92153 14.9692 6.12462C15.0929 6.32772 15.2703 6.49275 15.4818 6.60156C16.3485 7.03909 17.1396 7.61249 17.8251 8.30003C18.0661 8.54059 18.3926 8.6757 18.7331 8.6757C19.0735 8.6757 19.4001 8.54059 19.641 8.30003L21.7185 6.22255C21.959 5.98163 22.0941 5.65509 22.0941 5.31463C22.0941 4.97417 21.959 4.64763 21.7185 4.4067C18.9565 1.65108 15.2142 0.103515 11.3127 0.103516C7.41115 0.103516 3.6689 1.65108 0.906911 4.4067C0.666359 4.64763 0.53125 4.97417 0.53125 5.31463C0.53125 5.65509 0.666359 5.98163 0.906911 6.22256L2.97873 8.29438C3.09796 8.41379 3.23955 8.50856 3.3954 8.57326C3.55125 8.63795 3.71832 8.67132 3.88707 8.67145C4.05582 8.67158 4.22294 8.63848 4.3789 8.57402C4.53485 8.50956 4.67658 8.41502 4.796 8.29579Z" fill="#1BD569"/>
</svg>
